<svg xmlns="http://www.w3.org/2000/svg" version="1.1" xmlns:xlink="http://www.w3.org/1999/xlink" xmlns:svgjs="http://svgjs.dev/svgjs" width="1440" height="1920" preserveAspectRatio="none" viewBox="0 0 1440 1920"><g mask="url(&quot;#SvgjsMask1123&quot;)" fill="none"><rect width="1440" height="1920" x="0" y="0" fill="#0e2a47"></rect><path d="M154.71 -25.62L219.66 11.88L219.66 86.88L154.71 124.38L89.75 86.88L89.75 11.88zM349.57 311.88L414.52 349.38L414.52 424.38L349.57 461.88L284.62 424.38L284.62 349.38zM414.52 -25.62L479.48 11.88L479.48 86.88L414.52 124.38L349.57 86.88L349.57 11.88zM479.48 1661.88L544.43 1699.38L544.43 1774.38L479.48 1811.88L414.52 1774.38L414.52 1699.38zM414.52 1774.38L479.48 1811.88L479.48 1886.88L414.52 1924.38L349.57 1886.88L349.57 1811.88zM869.2 86.88L934.15 124.38L934.15 199.38L869.2 236.88L804.24 199.38L804.24 124.38zM804.24 874.38L869.2 911.88L869.2 986.88L804.24 1024.38L739.29 986.88L739.29 911.88zM804.24 1099.38L869.2 1136.88L869.2 1211.88L804.24 1249.38L739.29 1211.88L739.29 1136.88zM804.24 1324.38L869.2 1361.88L869.2 1436.88L804.24 1474.38L739.29 1436.88L739.29 1361.88zM934.15 -25.62L999.11 11.88L999.11 86.88L934.15 124.38L869.2 86.88L869.2 11.88zM999.11 761.88L1064.06 799.38L1064.06 874.38L999.11 911.88L934.15 874.38L934.15 799.38zM999.11 986.88L1064.06 1024.38L1064.06 1099.38L999.11 1136.88L934.15 1099.38L934.15 1024.38zM1064.06 199.38L1129.01 236.88L1129.01 311.88L1064.06 349.38L999.11 311.88L999.11 236.88zM1193.97 199.38L1258.92 236.88L1258.92 311.88L1193.97 349.38L1129.01 311.88L1129.01 236.88zM1258.92 536.88L1323.87 574.38L1323.87 649.38L1258.92 686.88L1193.97 649.38L1193.97 574.38zM1193.97 1099.38L1258.92 1136.88L1258.92 1211.88L1193.97 1249.38L1129.01 1211.88L1129.01 1136.88zM1258.92 1661.88L1323.87 1699.38L1323.87 1774.38L1258.92 1811.88L1193.97 1774.38L1193.97 1699.38zM1323.88 1099.38L1388.83 1136.88L1388.83 1211.88L1323.88 1249.38L1258.92 1211.88L1258.92 1136.88zM1453.78 199.38L1518.74 236.88L1518.74 311.88L1453.78 349.38L1388.83 311.88L1388.83 236.88z" stroke="rgba(0, 50, 87, 1)" stroke-width="2"></path><path d="M147.21 -25.62 a7.5 7.5 0 1 0 15 0 a7.5 7.5 0 1 0 -15 0zM212.16 11.88 a7.5 7.5 0 1 0 15 0 a7.5 7.5 0 1 0 -15 0zM212.16 86.88 a7.5 7.5 0 1 0 15 0 a7.5 7.5 0 1 0 -15 0zM147.21 124.38 a7.5 7.5 0 1 0 15 0 a7.5 7.5 0 1 0 -15 0zM82.25 86.88 a7.5 7.5 0 1 0 15 0 a7.5 7.5 0 1 0 -15 0zM82.25 11.88 a7.5 7.5 0 1 0 15 0 a7.5 7.5 0 1 0 -15 0zM342.07 311.88 a7.5 7.5 0 1 0 15 0 a7.5 7.5 0 1 0 -15 0zM407.02 349.38 a7.5 7.5 0 1 0 15 0 a7.5 7.5 0 1 0 -15 0zM407.02 424.38 a7.5 7.5 0 1 0 15 0 a7.5 7.5 0 1 0 -15 0zM342.07 461.88 a7.5 7.5 0 1 0 15 0 a7.5 7.5 0 1 0 -15 0zM277.12 424.38 a7.5 7.5 0 1 0 15 0 a7.5 7.5 0 1 0 -15 0zM277.12 349.38 a7.5 7.5 0 1 0 15 0 a7.5 7.5 0 1 0 -15 0zM407.02 -25.62 a7.5 7.5 0 1 0 15 0 a7.5 7.5 0 1 0 -15 0zM471.98 11.88 a7.5 7.5 0 1 0 15 0 a7.5 7.5 0 1 0 -15 0zM471.98 86.88 a7.5 7.5 0 1 0 15 0 a7.5 7.5 0 1 0 -15 0zM407.02 124.38 a7.5 7.5 0 1 0 15 0 a7.5 7.5 0 1 0 -15 0zM342.07 86.88 a7.5 7.5 0 1 0 15 0 a7.5 7.5 0 1 0 -15 0zM342.07 11.88 a7.5 7.5 0 1 0 15 0 a7.5 7.5 0 1 0 -15 0zM471.98 1661.88 a7.5 7.5 0 1 0 15 0 a7.5 7.5 0 1 0 -15 0zM536.93 1699.38 a7.5 7.5 0 1 0 15 0 a7.5 7.5 0 1 0 -15 0zM536.93 1774.38 a7.5 7.5 0 1 0 15 0 a7.5 7.5 0 1 0 -15 0zM471.98 1811.88 a7.5 7.5 0 1 0 15 0 a7.5 7.5 0 1 0 -15 0zM407.02 1774.38 a7.5 7.5 0 1 0 15 0 a7.5 7.5 0 1 0 -15 0zM407.02 1699.38 a7.5 7.5 0 1 0 15 0 a7.5 7.5 0 1 0 -15 0zM471.98 1886.88 a7.5 7.5 0 1 0 15 0 a7.5 7.5 0 1 0 -15 0zM407.02 1924.38 a7.5 7.5 0 1 0 15 0 a7.5 7.5 0 1 0 -15 0zM342.07 1886.88 a7.5 7.5 0 1 0 15 0 a7.5 7.5 0 1 0 -15 0zM342.07 1811.88 a7.5 7.5 0 1 0 15 0 a7.5 7.5 0 1 0 -15 0zM861.7 86.88 a7.5 7.5 0 1 0 15 0 a7.5 7.5 0 1 0 -15 0zM926.65 124.38 a7.5 7.5 0 1 0 15 0 a7.5 7.5 0 1 0 -15 0zM926.65 199.38 a7.5 7.5 0 1 0 15 0 a7.5 7.5 0 1 0 -15 0zM861.7 236.88 a7.5 7.5 0 1 0 15 0 a7.5 7.5 0 1 0 -15 0zM796.74 199.38 a7.5 7.5 0 1 0 15 0 a7.5 7.5 0 1 0 -15 0zM796.74 124.38 a7.5 7.5 0 1 0 15 0 a7.5 7.5 0 1 0 -15 0zM796.74 874.38 a7.5 7.5 0 1 0 15 0 a7.5 7.5 0 1 0 -15 0zM861.7 911.88 a7.5 7.5 0 1 0 15 0 a7.5 7.5 0 1 0 -15 0zM861.7 986.88 a7.5 7.5 0 1 0 15 0 a7.5 7.5 0 1 0 -15 0zM796.74 1024.38 a7.5 7.5 0 1 0 15 0 a7.5 7.5 0 1 0 -15 0zM731.79 986.88 a7.5 7.5 0 1 0 15 0 a7.5 7.5 0 1 0 -15 0zM731.79 911.88 a7.5 7.5 0 1 0 15 0 a7.5 7.5 0 1 0 -15 0zM796.74 1099.38 a7.5 7.5 0 1 0 15 0 a7.5 7.5 0 1 0 -15 0zM861.7 1136.88 a7.5 7.5 0 1 0 15 0 a7.5 7.5 0 1 0 -15 0zM861.7 1211.88 a7.5 7.5 0 1 0 15 0 a7.5 7.5 0 1 0 -15 0zM796.74 1249.38 a7.5 7.5 0 1 0 15 0 a7.5 7.5 0 1 0 -15 0zM731.79 1211.88 a7.5 7.5 0 1 0 15 0 a7.5 7.5 0 1 0 -15 0zM731.79 1136.88 a7.5 7.5 0 1 0 15 0 a7.5 7.5 0 1 0 -15 0zM796.74 1324.38 a7.5 7.5 0 1 0 15 0 a7.5 7.5 0 1 0 -15 0zM861.7 1361.88 a7.5 7.5 0 1 0 15 0 a7.5 7.5 0 1 0 -15 0zM861.7 1436.88 a7.5 7.5 0 1 0 15 0 a7.5 7.5 0 1 0 -15 0zM796.74 1474.38 a7.5 7.5 0 1 0 15 0 a7.5 7.5 0 1 0 -15 0zM731.79 1436.88 a7.5 7.5 0 1 0 15 0 a7.5 7.5 0 1 0 -15 0zM731.79 1361.88 a7.5 7.5 0 1 0 15 0 a7.5 7.5 0 1 0 -15 0zM926.65 -25.62 a7.5 7.5 0 1 0 15 0 a7.5 7.5 0 1 0 -15 0zM991.61 11.88 a7.5 7.5 0 1 0 15 0 a7.5 7.5 0 1 0 -15 0zM991.61 86.88 a7.5 7.5 0 1 0 15 0 a7.5 7.5 0 1 0 -15 0zM861.7 11.88 a7.5 7.5 0 1 0 15 0 a7.5 7.5 0 1 0 -15 0zM991.61 761.88 a7.5 7.5 0 1 0 15 0 a7.5 7.5 0 1 0 -15 0zM1056.56 799.38 a7.5 7.5 0 1 0 15 0 a7.5 7.5 0 1 0 -15 0zM1056.56 874.38 a7.5 7.5 0 1 0 15 0 a7.5 7.5 0 1 0 -15 0zM991.61 911.88 a7.5 7.5 0 1 0 15 0 a7.5 7.5 0 1 0 -15 0zM926.65 874.38 a7.5 7.5 0 1 0 15 0 a7.5 7.5 0 1 0 -15 0zM926.65 799.38 a7.5 7.5 0 1 0 15 0 a7.5 7.5 0 1 0 -15 0zM991.61 986.88 a7.5 7.5 0 1 0 15 0 a7.5 7.5 0 1 0 -15 0zM1056.56 1024.38 a7.5 7.5 0 1 0 15 0 a7.5 7.5 0 1 0 -15 0zM1056.56 1099.38 a7.5 7.5 0 1 0 15 0 a7.5 7.5 0 1 0 -15 0zM991.61 1136.88 a7.5 7.5 0 1 0 15 0 a7.5 7.5 0 1 0 -15 0zM926.65 1099.38 a7.5 7.5 0 1 0 15 0 a7.5 7.5 0 1 0 -15 0zM926.65 1024.38 a7.5 7.5 0 1 0 15 0 a7.5 7.5 0 1 0 -15 0zM1056.56 199.38 a7.5 7.5 0 1 0 15 0 a7.5 7.5 0 1 0 -15 0zM1121.51 236.88 a7.5 7.5 0 1 0 15 0 a7.5 7.5 0 1 0 -15 0zM1121.51 311.88 a7.5 7.5 0 1 0 15 0 a7.5 7.5 0 1 0 -15 0zM1056.56 349.38 a7.5 7.5 0 1 0 15 0 a7.5 7.5 0 1 0 -15 0zM991.61 311.88 a7.5 7.5 0 1 0 15 0 a7.5 7.5 0 1 0 -15 0zM991.61 236.88 a7.5 7.5 0 1 0 15 0 a7.5 7.5 0 1 0 -15 0zM1186.47 199.38 a7.5 7.5 0 1 0 15 0 a7.5 7.5 0 1 0 -15 0zM1251.42 236.88 a7.5 7.5 0 1 0 15 0 a7.5 7.5 0 1 0 -15 0zM1251.42 311.88 a7.5 7.5 0 1 0 15 0 a7.5 7.5 0 1 0 -15 0zM1186.47 349.38 a7.5 7.5 0 1 0 15 0 a7.5 7.5 0 1 0 -15 0zM1251.42 536.88 a7.5 7.5 0 1 0 15 0 a7.5 7.5 0 1 0 -15 0zM1316.37 574.38 a7.5 7.5 0 1 0 15 0 a7.5 7.5 0 1 0 -15 0zM1316.37 649.38 a7.5 7.5 0 1 0 15 0 a7.5 7.5 0 1 0 -15 0zM1251.42 686.88 a7.5 7.5 0 1 0 15 0 a7.5 7.5 0 1 0 -15 0zM1186.47 649.38 a7.5 7.5 0 1 0 15 0 a7.5 7.5 0 1 0 -15 0zM1186.47 574.38 a7.5 7.5 0 1 0 15 0 a7.5 7.5 0 1 0 -15 0zM1186.47 1099.38 a7.5 7.5 0 1 0 15 0 a7.5 7.5 0 1 0 -15 0zM1251.42 1136.88 a7.5 7.5 0 1 0 15 0 a7.5 7.5 0 1 0 -15 0zM1251.42 1211.88 a7.5 7.5 0 1 0 15 0 a7.5 7.5 0 1 0 -15 0zM1186.47 1249.38 a7.5 7.5 0 1 0 15 0 a7.5 7.5 0 1 0 -15 0zM1121.51 1211.88 a7.5 7.5 0 1 0 15 0 a7.5 7.5 0 1 0 -15 0zM1121.51 1136.88 a7.5 7.5 0 1 0 15 0 a7.5 7.5 0 1 0 -15 0zM1251.42 1661.88 a7.5 7.5 0 1 0 15 0 a7.5 7.5 0 1 0 -15 0zM1316.37 1699.38 a7.5 7.5 0 1 0 15 0 a7.5 7.5 0 1 0 -15 0zM1316.37 1774.38 a7.5 7.5 0 1 0 15 0 a7.5 7.5 0 1 0 -15 0zM1251.42 1811.88 a7.5 7.5 0 1 0 15 0 a7.5 7.5 0 1 0 -15 0zM1186.47 1774.38 a7.5 7.5 0 1 0 15 0 a7.5 7.5 0 1 0 -15 0zM1186.47 1699.38 a7.5 7.5 0 1 0 15 0 a7.5 7.5 0 1 0 -15 0zM1316.38 1099.38 a7.5 7.5 0 1 0 15 0 a7.5 7.5 0 1 0 -15 0zM1381.33 1136.88 a7.5 7.5 0 1 0 15 0 a7.5 7.5 0 1 0 -15 0zM1381.33 1211.88 a7.5 7.5 0 1 0 15 0 a7.5 7.5 0 1 0 -15 0zM1316.38 1249.38 a7.5 7.5 0 1 0 15 0 a7.5 7.5 0 1 0 -15 0zM1446.28 199.38 a7.5 7.5 0 1 0 15 0 a7.5 7.5 0 1 0 -15 0zM1511.24 236.88 a7.5 7.5 0 1 0 15 0 a7.5 7.5 0 1 0 -15 0zM1511.24 311.88 a7.5 7.5 0 1 0 15 0 a7.5 7.5 0 1 0 -15 0zM1446.28 349.38 a7.5 7.5 0 1 0 15 0 a7.5 7.5 0 1 0 -15 0zM1381.33 311.88 a7.5 7.5 0 1 0 15 0 a7.5 7.5 0 1 0 -15 0zM1381.33 236.88 a7.5 7.5 0 1 0 15 0 a7.5 7.5 0 1 0 -15 0z" fill="rgba(0, 50, 87, 1)"></path><path d="M23.26 -14.58L66.56 10.42L66.56 60.42L23.26 85.42L-20.04 60.42L-20.04 10.42zM23.26 135.42L66.56 160.42L66.56 210.42L23.26 235.42L-20.04 210.42L-20.04 160.42zM23.26 285.42L66.56 310.42L66.56 360.42L23.26 385.42L-20.04 360.42L-20.04 310.42zM66.56 360.42L109.87 385.42L109.87 435.42L66.56 460.42L23.26 435.42L23.26 385.42zM23.26 885.42L66.56 910.42L66.56 960.42L23.26 985.42L-20.04 960.42L-20.04 910.42zM66.56 1410.42L109.87 1435.42L109.87 1485.42L66.56 1510.42L23.26 1485.42L23.26 1435.42zM23.26 1935.42L66.56 1960.42L66.56 2010.42L23.26 2035.42L-20.04 2010.42L-20.04 1960.42zM153.17 60.42L196.47 85.42L196.47 135.42L153.17 160.42L109.87 135.42L109.87 85.42zM153.17 660.42L196.47 685.42L196.47 735.42L153.17 760.42L109.87 735.42L109.87 685.42zM153.17 1110.42L196.47 1135.42L196.47 1185.42L153.17 1210.42L109.87 1185.42L109.87 1135.42zM153.17 1710.42L196.47 1735.42L196.47 1785.42L153.17 1810.42L109.87 1785.42L109.87 1735.42zM109.87 1785.42L153.17 1810.42L153.17 1860.42L109.87 1885.42L66.56 1860.42L66.56 1810.42zM109.87 1935.42L153.17 1960.42L153.17 2010.42L109.87 2035.42L66.56 2010.42L66.56 1960.42zM239.77 210.42L283.07 235.42L283.07 285.42L239.77 310.42L196.47 285.42L196.47 235.42zM196.47 1635.42L239.77 1660.42L239.77 1710.42L196.47 1735.42L153.17 1710.42L153.17 1660.42zM239.77 1710.42L283.07 1735.42L283.07 1785.42L239.77 1810.42L196.47 1785.42L196.47 1735.42zM326.38 660.42L369.68 685.42L369.68 735.42L326.38 760.42L283.07 735.42L283.07 685.42zM283.07 1185.42L326.38 1210.42L326.38 1260.42L283.07 1285.42L239.77 1260.42L239.77 1210.42zM283.07 1485.42L326.38 1510.42L326.38 1560.42L283.07 1585.42L239.77 1560.42L239.77 1510.42zM326.38 1560.42L369.68 1585.42L369.68 1635.42L326.38 1660.42L283.07 1635.42L283.07 1585.42zM283.07 1935.42L326.38 1960.42L326.38 2010.42L283.07 2035.42L239.77 2010.42L239.77 1960.42zM369.68 -14.58L412.98 10.42L412.98 60.42L369.68 85.42L326.38 60.42L326.38 10.42zM412.98 360.42L456.29 385.42L456.29 435.42L412.98 460.42L369.68 435.42L369.68 385.42zM369.68 435.42L412.98 460.42L412.98 510.42L369.68 535.42L326.38 510.42L326.38 460.42zM412.98 810.42L456.29 835.42L456.29 885.42L412.98 910.42L369.68 885.42L369.68 835.42zM412.98 1560.42L456.29 1585.42L456.29 1635.42L412.98 1660.42L369.68 1635.42L369.68 1585.42zM369.68 1635.42L412.98 1660.42L412.98 1710.42L369.68 1735.42L326.38 1710.42L326.38 1660.42zM369.68 1785.42L412.98 1810.42L412.98 1860.42L369.68 1885.42L326.38 1860.42L326.38 1810.42zM369.68 1935.42L412.98 1960.42L412.98 2010.42L369.68 2035.42L326.38 2010.42L326.38 1960.42zM499.59 510.42L542.89 535.42L542.89 585.42L499.59 610.42L456.29 585.42L456.29 535.42zM499.59 660.42L542.89 685.42L542.89 735.42L499.59 760.42L456.29 735.42L456.29 685.42zM456.29 1335.42L499.59 1360.42L499.59 1410.42L456.29 1435.42L412.98 1410.42L412.98 1360.42zM456.29 1785.42L499.59 1810.42L499.59 1860.42L456.29 1885.42L412.98 1860.42L412.98 1810.42zM499.59 1860.42L542.89 1885.42L542.89 1935.42L499.59 1960.42L456.29 1935.42L456.29 1885.42zM542.89 285.42L586.19 310.42L586.19 360.42L542.89 385.42L499.59 360.42L499.59 310.42zM542.89 735.42L586.19 760.42L586.19 810.42L542.89 835.42L499.59 810.42L499.59 760.42zM586.19 960.42L629.5 985.42L629.5 1035.42L586.19 1060.42L542.89 1035.42L542.89 985.42zM542.89 1635.42L586.19 1660.42L586.19 1710.42L542.89 1735.42L499.59 1710.42L499.59 1660.42zM542.89 1785.42L586.19 1810.42L586.19 1860.42L542.89 1885.42L499.59 1860.42L499.59 1810.42zM629.5 285.42L672.8 310.42L672.8 360.42L629.5 385.42L586.19 360.42L586.19 310.42zM672.8 510.42L716.1 535.42L716.1 585.42L672.8 610.42L629.5 585.42L629.5 535.42zM629.5 735.42L672.8 760.42L672.8 810.42L629.5 835.42L586.19 810.42L586.19 760.42zM672.8 960.42L716.1 985.42L716.1 1035.42L672.8 1060.42L629.5 1035.42L629.5 985.42zM629.5 1035.42L672.8 1060.42L672.8 1110.42L629.5 1135.42L586.19 1110.42L586.19 1060.42zM672.8 1260.42L716.1 1285.42L716.1 1335.42L672.8 1360.42L629.5 1335.42L629.5 1285.42zM629.5 1335.42L672.8 1360.42L672.8 1410.42L629.5 1435.42L586.19 1410.42L586.19 1360.42zM672.8 1410.42L716.1 1435.42L716.1 1485.42L672.8 1510.42L629.5 1485.42L629.5 1435.42zM629.5 1485.42L672.8 1510.42L672.8 1560.42L629.5 1585.42L586.19 1560.42L586.19 1510.42zM759.4 660.42L802.71 685.42L802.71 735.42L759.4 760.42L716.1 735.42L716.1 685.42zM759.4 1260.42L802.71 1285.42L802.71 1335.42L759.4 1360.42L716.1 1335.42L716.1 1285.42zM716.1 1485.42L759.4 1510.42L759.4 1560.42L716.1 1585.42L672.8 1560.42L672.8 1510.42zM716.1 1785.42L759.4 1810.42L759.4 1860.42L716.1 1885.42L672.8 1860.42L672.8 1810.42zM802.71 -14.58L846.01 10.42L846.01 60.42L802.71 85.42L759.4 60.42L759.4 10.42zM802.71 435.42L846.01 460.42L846.01 510.42L802.71 535.42L759.4 510.42L759.4 460.42zM846.01 810.42L889.31 835.42L889.31 885.42L846.01 910.42L802.71 885.42L802.71 835.42zM846.01 960.42L889.31 985.42L889.31 1035.42L846.01 1060.42L802.71 1035.42L802.71 985.42zM802.71 1485.42L846.01 1510.42L846.01 1560.42L802.71 1585.42L759.4 1560.42L759.4 1510.42zM932.61 210.42L975.92 235.42L975.92 285.42L932.61 310.42L889.31 285.42L889.31 235.42zM889.31 1035.42L932.61 1060.42L932.61 1110.42L889.31 1135.42L846.01 1110.42L846.01 1060.42zM932.61 1260.42L975.92 1285.42L975.92 1335.42L932.61 1360.42L889.31 1335.42L889.31 1285.42zM889.31 1335.42L932.61 1360.42L932.61 1410.42L889.31 1435.42L846.01 1410.42L846.01 1360.42zM889.31 1485.42L932.61 1510.42L932.61 1560.42L889.31 1585.42L846.01 1560.42L846.01 1510.42zM932.61 1560.42L975.92 1585.42L975.92 1635.42L932.61 1660.42L889.31 1635.42L889.31 1585.42zM889.31 1785.42L932.61 1810.42L932.61 1860.42L889.31 1885.42L846.01 1860.42L846.01 1810.42zM932.61 1860.42L975.92 1885.42L975.92 1935.42L932.61 1960.42L889.31 1935.42L889.31 1885.42zM889.31 1935.42L932.61 1960.42L932.61 2010.42L889.31 2035.42L846.01 2010.42L846.01 1960.42zM1019.22 960.42L1062.52 985.42L1062.52 1035.42L1019.22 1060.42L975.92 1035.42L975.92 985.42zM1019.22 1260.42L1062.52 1285.42L1062.52 1335.42L1019.22 1360.42L975.92 1335.42L975.92 1285.42zM975.92 1335.42L1019.22 1360.42L1019.22 1410.42L975.92 1435.42L932.61 1410.42L932.61 1360.42zM975.92 1485.42L1019.22 1510.42L1019.22 1560.42L975.92 1585.42L932.61 1560.42L932.61 1510.42zM1019.22 1860.42L1062.52 1885.42L1062.52 1935.42L1019.22 1960.42L975.92 1935.42L975.92 1885.42zM1105.82 60.42L1149.13 85.42L1149.13 135.42L1105.82 160.42L1062.52 135.42L1062.52 85.42zM1105.82 210.42L1149.13 235.42L1149.13 285.42L1105.82 310.42L1062.52 285.42L1062.52 235.42zM1062.52 435.42L1105.82 460.42L1105.82 510.42L1062.52 535.42L1019.22 510.42L1019.22 460.42zM1062.52 1035.42L1105.82 1060.42L1105.82 1110.42L1062.52 1135.42L1019.22 1110.42L1019.22 1060.42zM1062.52 1185.42L1105.82 1210.42L1105.82 1260.42L1062.52 1285.42L1019.22 1260.42L1019.22 1210.42zM1105.82 1260.42L1149.13 1285.42L1149.13 1335.42L1105.82 1360.42L1062.52 1335.42L1062.52 1285.42zM1062.52 1635.42L1105.82 1660.42L1105.82 1710.42L1062.52 1735.42L1019.22 1710.42L1019.22 1660.42zM1105.82 1860.42L1149.13 1885.42L1149.13 1935.42L1105.82 1960.42L1062.52 1935.42L1062.52 1885.42zM1192.43 210.42L1235.73 235.42L1235.73 285.42L1192.43 310.42L1149.13 285.42L1149.13 235.42zM1149.13 285.42L1192.43 310.42L1192.43 360.42L1149.13 385.42L1105.82 360.42L1105.82 310.42zM1149.13 435.42L1192.43 460.42L1192.43 510.42L1149.13 535.42L1105.82 510.42L1105.82 460.42zM1192.43 810.42L1235.73 835.42L1235.73 885.42L1192.43 910.42L1149.13 885.42L1149.13 835.42zM1192.43 1410.42L1235.73 1435.42L1235.73 1485.42L1192.43 1510.42L1149.13 1485.42L1149.13 1435.42zM1149.13 1935.42L1192.43 1960.42L1192.43 2010.42L1149.13 2035.42L1105.82 2010.42L1105.82 1960.42zM1235.73 135.42L1279.03 160.42L1279.03 210.42L1235.73 235.42L1192.43 210.42L1192.43 160.42zM1235.73 285.42L1279.03 310.42L1279.03 360.42L1235.73 385.42L1192.43 360.42L1192.43 310.42zM1279.03 360.42L1322.34 385.42L1322.34 435.42L1279.03 460.42L1235.73 435.42L1235.73 385.42zM1279.03 510.42L1322.34 535.42L1322.34 585.42L1279.03 610.42L1235.73 585.42L1235.73 535.42zM1235.73 585.42L1279.03 610.42L1279.03 660.42L1235.73 685.42L1192.43 660.42L1192.43 610.42zM1235.73 735.42L1279.03 760.42L1279.03 810.42L1235.73 835.42L1192.43 810.42L1192.43 760.42zM1279.03 960.42L1322.34 985.42L1322.34 1035.42L1279.03 1060.42L1235.73 1035.42L1235.73 985.42zM1279.03 1110.42L1322.34 1135.42L1322.34 1185.42L1279.03 1210.42L1235.73 1185.42L1235.73 1135.42zM1279.03 1410.42L1322.34 1435.42L1322.34 1485.42L1279.03 1510.42L1235.73 1485.42L1235.73 1435.42zM1279.03 1560.42L1322.34 1585.42L1322.34 1635.42L1279.03 1660.42L1235.73 1635.42L1235.73 1585.42zM1235.73 1935.42L1279.03 1960.42L1279.03 2010.42L1235.73 2035.42L1192.43 2010.42L1192.43 1960.42zM1322.34 135.42L1365.64 160.42L1365.64 210.42L1322.34 235.42L1279.03 210.42L1279.03 160.42zM1365.64 360.42L1408.94 385.42L1408.94 435.42L1365.64 460.42L1322.34 435.42L1322.34 385.42zM1365.64 510.42L1408.94 535.42L1408.94 585.42L1365.64 610.42L1322.34 585.42L1322.34 535.42zM1322.34 1185.42L1365.64 1210.42L1365.64 1260.42L1322.34 1285.42L1279.03 1260.42L1279.03 1210.42zM1365.64 1260.42L1408.94 1285.42L1408.94 1335.42L1365.64 1360.42L1322.34 1335.42L1322.34 1285.42zM1365.64 1410.42L1408.94 1435.42L1408.94 1485.42L1365.64 1510.42L1322.34 1485.42L1322.34 1435.42zM1365.64 1560.42L1408.94 1585.42L1408.94 1635.42L1365.64 1660.42L1322.34 1635.42L1322.34 1585.42zM1322.34 1635.42L1365.64 1660.42L1365.64 1710.42L1322.34 1735.42L1279.03 1710.42L1279.03 1660.42zM1365.64 1710.42L1408.94 1735.42L1408.94 1785.42L1365.64 1810.42L1322.34 1785.42L1322.34 1735.42zM1365.64 1860.42L1408.94 1885.42L1408.94 1935.42L1365.64 1960.42L1322.34 1935.42L1322.34 1885.42zM1452.24 60.42L1495.55 85.42L1495.55 135.42L1452.24 160.42L1408.94 135.42L1408.94 85.42zM1408.94 435.42L1452.24 460.42L1452.24 510.42L1408.94 535.42L1365.64 510.42L1365.64 460.42zM1452.24 510.42L1495.55 535.42L1495.55 585.42L1452.24 610.42L1408.94 585.42L1408.94 535.42zM1408.94 885.42L1452.24 910.42L1452.24 960.42L1408.94 985.42L1365.64 960.42L1365.64 910.42zM1452.24 960.42L1495.55 985.42L1495.55 1035.42L1452.24 1060.42L1408.94 1035.42L1408.94 985.42zM1452.24 1560.42L1495.55 1585.42L1495.55 1635.42L1452.24 1660.42L1408.94 1635.42L1408.94 1585.42z" stroke="rgba(0, 82, 144, 1)" stroke-width="2"></path></g><defs><mask id="SvgjsMask1123"><rect width="1440" height="1920" fill="#ffffff"></rect></mask></defs></svg>